<svg version="1.1" id="Layer_1" xmlns="http://www.w3.org/2000/svg" x="0" y="0" viewBox="0 0 512 512" style="enable-background:new 0 0 512 512" xml:space="preserve">
<style>
    .outline { fill: none; stroke: currentColor; stroke-width: 8; stroke-linecap: round; stroke-linejoin: round; }
</style>

<!-- Body Outline -->
<path class="outline" d="M217.6 21.5h-138.3c-17.2 0-31.1 14.4-31.1 32v39.4a32.6 32.6 0 0 0 4.7 16.9l3.5 5.8 9 14.7v-6.3l12 .9c.6 0 1.3.1 1.9.1h138.3c17.2 0 31.1-14.4 31.1-32V53.5c0-17.7-14-32-31.1-32z"/>

<!-- Head -->
<path class="outline" d="M393.8 14.2c-33.5 0-60.8 27.3-60.8 60.8 0 31.3 23.4 57.3 54.5 60.4l9.8 1 9.6-2.1c27.6-6.1 47.6-31 47.6-59.3 0-33.5-27.3-60.8-60.7-60.8z"/>

<!-- Left Wheel -->
<path class="outline" d="M114.8 209.9c-27.4 0-49.7 22.3-49.7 49.7s22.3 49.7 49.7 49.7c27.4 0 49.7-22.3 49.7-49.7s-22.3-49.7-49.7-49.7zm0 35.5c-7.9 0-14.3 6.4-14.3 14.3s6.4 14.3 14.3 14.3 14.3-6.4 14.3-14.3-6.4-14.3-14.3-14.3z"/>

<!-- Right Wheel -->
<path class="outline" d="M401.5 209.9c-27.4 0-49.7 22.3-49.7 49.7s22.3 49.7 49.7 49.7c27.4 0 49.7-22.3 49.7-49.7s-22.3-49.7-49.7-49.7zm0 35.5c-7.9 0-14.3 6.4-14.3 14.3s6.4 14.3 14.3 14.3 14.3-6.4 14.3-14.3-6.4-14.3-14.3-14.3z"/>

<!-- Base Platform -->
<path class="outline" d="M20.4 418.4v42.3h471.2v-42.3H20.4zm464.7 35.8H27v-29.2h458.2v29.2z"/>

<!-- Center Line -->
<path class="outline" d="M34.5 432.5h443v14H34.5z"/>

<!-- Support Stand -->
<path class="outline" d="M245.1 468.3h21.9V512h-21.9z"/>

<!-- Left Arm -->
<path class="outline" d="M101.5 306l8 19.1h10.8l8.1-19.1zM120.2 325.2h-10.8l-6.9 32.7c11.1-2.7 20.9-9.6 27-19.5l-9.3-13.2z"/>

<!-- Right Arm -->
<path class="outline" d="M388 306l8.1 19.1h10.8l7.9-19.1zM406.9 325.2h-10.8l-10.4 54.1c11.1-2.7 20.9-9.6 27-19.5l-5.8-34.6z"/>

<!-- Left Side Panel -->
<path class="outline" d="M227.2 388.1h-35.3l-36.6-55.2a35.4 35.4 0 0 0-29.6-15.9H82c-14.2 0-26.3 9.4-30.3 22.4v62.1h176.9c6.3 0 11.4-5.1 11.4-11.4 0-6.2-5.1-11.3-11.4-11.3z"/>

<!-- Right Side Panel -->
<path class="outline" d="M464.6 339.3c-4-12.9-16.1-22.4-30.3-22.4h-43.7a35.4 35.4 0 0 0-29.6 15.9l-36.6 55.2h-35.3c-6.3 0-11.4 5.1-11.4 11.4s5.1 11.4 11.4 11.4H466v-62.1c0-3.2-.5-6.4-1.4-9.4z"/>

<!-- Side Details -->
<path class="outline" d="M367.9 468.3h98.1v16.4h-98.1zM50.3 468.3h98.1v16.4H50.3z"/>

</svg>