<?xml version="1.0" encoding="utf-8"?>
<!-- Cleaned + optimized for Flutter (white stroke only, no fill) -->
<svg
  width="800px"
  height="800px"
  viewBox="0 0 24 24"
  xmlns="http://www.w3.org/2000/svg"
>
  <path
    fill="none"
    stroke="#FFFFFF"
    stroke-miterlimit="10"
    stroke-width="1.91"
    d="M10.09,1.5h3.83a2.87,2.87,0,0,1,2.87,2.87V9.15A4.78,4.78,0,0,1,12,13.93h0A4.78,4.78,0,0,1,7.22,9.15V4.37A2.87,2.87,0,0,1,10.09,1.5Z
       M7.22,5.33h9.57v0A2.87,2.87,0,0,1,13.91,8.2H10.09A2.87,2.87,0,0,1,7.22,5.33Z
       M3.39,23.5v-1A8.62,8.62,0,0,1,12,13.93h0a8.62,8.62,0,0,1,8.61,8.61v1
       M12,20.63m0-0.96a0.96,0.96,0,1,0,0,1.92,0.96,0.96,0,1,0,0-1.92Z
       M12.96,23.5V20.63
       M7.22,13.94L12,19.67L16.78,13.94Z"
  />
</svg>
